<svg id="Layer_1" enable-background="new 0 0 512 512" height="512" viewBox="0 0 512 512" width="512" xmlns="http://www.w3.org/2000/svg"><path d="m64.01 3.75h383.981v95.727h-383.981z" fill="#ff5e57"/><path d="m417.99 3.75h30v79.496h-30z" fill="#f7372f"/><path d="m110.136 43.983h291.729v56.133h-291.729z" fill="#ffe354"/><g><g><g><path d="m36.784 83.246h438.44v417.504h-438.44z" fill="#fff6db"/></g><path d="m445.224 83.246h30v417.504h-30z" fill="#ffeebd"/><g><g fill="#cff5ff"><path d="m91.206 133.587h80.387v84.291h-80.387z"/><path d="m215.35 133.587h80.387v84.291h-80.387z"/></g><g><g><path d="m340.407 133.587h80.387v84.291h-80.387z" fill="#cff5ff"/><g fill="#88e0f7"><path d="m150.838 153.339c-3.084-2.767-7.825-2.509-10.592.572l-32.067 35.732c-2.767 3.083-2.51 7.825.572 10.592 1.433 1.285 3.223 1.918 5.007 1.918 2.056 0 4.104-.841 5.585-2.49l32.067-35.732c2.767-3.083 2.51-7.826-.572-10.592z"/><path d="m155.721 180.211c-3.084-2.765-7.825-2.503-10.591.578l-7.94 8.858c-2.765 3.084-2.506 7.825.579 10.591 1.432 1.283 3.221 1.915 5.003 1.915 2.058 0 4.106-.842 5.588-2.493l7.94-8.858c2.764-3.084 2.506-7.825-.579-10.591z"/><path d="m274.832 153.339c-3.084-2.767-7.825-2.509-10.592.572l-32.067 35.732c-2.767 3.083-2.51 7.825.572 10.592 1.433 1.285 3.223 1.918 5.007 1.918 2.056 0 4.104-.841 5.585-2.49l32.067-35.732c2.767-3.083 2.51-7.826-.572-10.592z"/><path d="m279.715 180.211c-3.084-2.765-7.825-2.503-10.591.578l-7.94 8.858c-2.765 3.084-2.506 7.825.579 10.591 1.432 1.283 3.221 1.915 5.003 1.915 2.058 0 4.106-.842 5.588-2.493l7.94-8.858c2.765-3.084 2.506-7.825-.579-10.591z"/><path d="m399.89 153.339c-3.084-2.767-7.825-2.509-10.592.572l-32.067 35.732c-2.767 3.083-2.51 7.825.572 10.592 1.433 1.285 3.223 1.918 5.007 1.918 2.056 0 4.104-.841 5.585-2.49l32.067-35.732c2.767-3.083 2.51-7.826-.572-10.592z"/><path d="m404.772 180.211c-3.084-2.765-7.826-2.503-10.591.578l-7.94 8.858c-2.765 3.084-2.506 7.825.579 10.591 1.432 1.283 3.221 1.915 5.003 1.915 2.058 0 4.106-.842 5.588-2.493l7.94-8.858c2.765-3.084 2.506-7.825-.579-10.591z"/></g></g></g></g><path d="m89.932 271.824v228.519h165.718.7 165.718v-228.519z" fill="#ff5e57"/><g fill="#de2a2e"><path d="m89.932 311.301h332.136v37.482h-332.136z"/><path d="m89.932 387.064h332.136v37.482h-332.136z"/><path d="m89.932 462.826h332.136v37.482h-332.136z"/></g></g></g><path d="m504.5 493.25h-497c-4.143 0-7.5 3.357-7.5 7.5s3.357 7.5 7.5 7.5h497c4.143 0 7.5-3.357 7.5-7.5s-3.357-7.5-7.5-7.5z" fill="#869bb0"/></svg>