<svg id="Layer_1" enable-background="new 0 0 497.01 497.01" height="512" viewBox="0 0 497.01 497.01" width="512" xmlns="http://www.w3.org/2000/svg"><g><path d="m475.295 409.005-230.795 32-222.795-32c-11.987 0-21.705-9.717-21.705-21.705 0-11.987 9.718-21.705 21.705-21.705l222.795-37.59 230.795 37.59c11.987 0 21.705 9.718 21.705 21.705 0 11.988-9.718 21.705-21.705 21.705z" fill="#de2a2e"/><g><g><path d="m36.71 451.832-8.616-39.746c48.606-10.536 79.468-58.48 68.931-107.086-11.298-49.817 4.931-101.9 46.929-132.63l30.006-21.957 24.016 32.822-30.007 21.957c-29.139 21.321-39.163 56.933-31.199 91.192 15.296 70.557-29.504 140.153-100.06 155.448z" fill="#de2a2e"/><g><path d="m300.683 72.636 12.69 17.659-82.273 82.969-35.292-49.113z" fill="#c2d8ed"/><path d="m164.209 132.48h80.373v45.473h-80.373z" fill="#869bb0" transform="matrix(.584 .812 -.812 .584 211.167 -101.345)"/></g></g><path d="m497 12.063c-66.167-28.667-147.5-5.333-196.317 60.573l12.69 17.659s103.877-31.315 183.627 48.435z" fill="#36b8ff"/></g><path d="m475.295 497.005h-453.59c-11.987 0-21.705-9.717-21.705-21.705 0-11.987 9.718-21.705 21.705-21.705l218.295-27.59 235.295 27.59c11.987 0 21.705 9.718 21.705 21.705 0 11.988-9.718 21.705-21.705 21.705z" fill="#de2a2e"/><path d="m475.295 453.596h-30c11.987 0 21.705 9.718 21.705 21.705 0 11.987-9.718 21.705-21.705 21.705h30c11.987 0 21.705-9.718 21.705-21.705 0-11.988-9.718-21.705-21.705-21.705z" fill="#cf1d21"/><path d="m475.295 453.005h-453.59c-11.987 0-21.705-9.717-21.705-21.705 0-11.987 9.718-21.705 21.705-21.705h453.59c11.987 0 21.705 9.718 21.705 21.705 0 11.988-9.718 21.705-21.705 21.705z" fill="#ff5e57"/><path d="m475.295 409.596h-30c11.987 0 21.705 9.718 21.705 21.705 0 11.987-9.718 21.705-21.705 21.705h30c11.987 0 21.705-9.718 21.705-21.705 0-11.988-9.718-21.705-21.705-21.705z" fill="#f7372f"/><path d="m475.295 365.596h-30c11.987 0 21.705 9.718 21.705 21.705 0 11.987-9.718 21.705-21.705 21.705h30c11.987 0 21.705-9.718 21.705-21.705 0-11.988-9.718-21.705-21.705-21.705z" fill="#cf1d21"/><path d="m475.295 365.005h-453.59c-11.987 0-21.705-9.717-21.705-21.705 0-11.987 9.718-21.705 21.705-21.705h453.59c11.987 0 21.705 9.718 21.705 21.705 0 11.988-9.718 21.705-21.705 21.705z" fill="#ff5e57"/><path d="m475.295 321.596h-30c11.987 0 21.705 9.718 21.705 21.705 0 11.987-9.718 21.705-21.705 21.705h30c11.987 0 21.705-9.718 21.705-21.705 0-11.988-9.718-21.705-21.705-21.705z" fill="#f7372f"/><g><path d="m497 94.193c-1.801 0-4.44-.498-5.876-1.804-.302-.267-15.44-13.499-47.177-20.213-4.052-.857-6.643-4.838-5.785-8.891s4.841-6.641 8.891-5.785c26.482 5.602 42.804 15.374 49.958 20.49z" fill="#0aa5fa"/></g><g><path d="m387.507 47.006c-2.636 0-5.192-1.392-6.563-3.858-2.011-3.621-.707-8.188 2.914-10.199.812-.449 20.133-11.038 42.999-9.935 4.138.196 7.332 3.711 7.135 7.848-.196 4.137-3.716 7.319-7.848 7.135-18.65-.866-34.84 7.976-35.001 8.065-1.154.64-2.404.944-3.636.944z" fill="#0aa5fa"/></g></g></svg>