<svg id="Layer_1" enable-background="new 0 0 497 497" height="512" viewBox="0 0 497 497" width="512" xmlns="http://www.w3.org/2000/svg"><g><path d="m433.548 63.451c.008-4.086-3.411-7.513-7.497-7.515l-332.754-.843c-4.572.417-7.079 2.911-7.519 7.481l-.14 55.548c0 4.078 3.393 7.511 7.481 7.519l332.77.843c3.789 0 7.51-3.77 7.519-7.481l.14-55.548c0-.001 0-.002 0-.004zm-110.942 7.223 29.875.076-29.951 29.846.024-9.648zm-55.462-.141 29.875.076-29.951 29.846.024-9.648zm-55.461-.14 29.875.076-29.951 29.846.024-9.648zm-55.462-.141 29.875.075-29.951 29.846.024-9.648zm-15.051 20.236-.051 20.274-29.875-.076 29.95-29.846zm55.486-9.507-.024 9.648-.051 20.274-29.875-.076zm55.461.141-.024 9.648-.051 20.274-29.875-.076zm55.462.14-.024 9.647-.051 20.274-29.875-.075zm55.462.141-.024 9.648-.051 20.274-29.875-.076zm14.975 9.685.051-20.274 29.875.076-29.951 29.846zm-247.382-20.9-29.95 29.846.075-29.921zm257.917 41.201 29.951-29.846-.075 29.922z" fill="#869bb0"/><g><path d="m105.756 133.982h-56.264v-59.526c0-15.537 12.595-28.132 28.132-28.132 15.537 0 28.132 12.595 28.132 28.132z" fill="#c2d8ed"/><g><path d="m76.582 86.174c9.652 0 9.668-15 0-15-9.652 0-9.668 15 0 15z" fill="#7c90a3"/></g></g><path d="m300.596 203.876h48.971v164.881h-48.971z" fill="#de2a2e"/><path d="m286.625 410.5h-263.797c-12.607 0-22.828-10.221-22.828-22.829v-202.708c0-12.608 10.221-22.828 22.828-22.828h263.796c12.608 0 22.828 10.221 22.828 22.828v202.709c.001 12.607-10.22 22.828-22.827 22.828z" fill="#ff5e57"/><path d="m286.625 162.134h-30c12.608 0 22.828 10.221 22.828 22.828v202.709c0 12.608-10.221 22.828-22.828 22.828h30c12.608 0 22.828-10.221 22.828-22.828v-202.708c0-12.608-10.221-22.829-22.828-22.829z" fill="#f7372f"/><path d="m481.198 410.5h-126.907c-8.727 0-15.802-7.086-15.802-15.827v-216.712c0-8.741 7.075-15.827 15.802-15.827h29.66l81.791 111.119c0 4.339 1.798 8.483 4.965 11.443l19.673 18.39c4.223 3.947 6.62 9.473 6.62 15.258v76.328c0 8.742-7.075 15.828-15.802 15.828z" fill="#ff5e57"/><path d="m490.38 303.087-19.673-18.39c-3.167-2.96-4.965-7.105-4.965-11.443l-30.231-57.198.231 57.198c0 4.339 1.798 8.483 4.965 11.443l19.673 18.39c4.223 3.947 6.62 9.473 6.62 15.258v76.328c0 8.741-7.075 15.827-15.802 15.827h30c8.727 0 15.802-7.086 15.802-15.827v-76.328c0-5.785-2.397-11.311-6.62-15.258z" fill="#f7372f"/><path d="m481.211 410.714h-44.643l-5.735-34.437h66.167v18.648c0 8.719-7.069 15.789-15.789 15.789z" fill="#869bb0"/><path d="m467 376.276v18.648c0 8.72-7.069 15.789-15.789 15.789h30c8.72 0 15.789-7.069 15.789-15.789v-18.648z" fill="#7c90a3"/><g><path d="m0 203.876h309.35v117.66h-309.35z" fill="#c2d8ed"/><path d="m279.35 203.876h30v117.66h-30z" fill="#b4cae0"/><path d="m0 243.45h309.35v38.512h-309.35z" fill="#869bb0"/><path d="m279.35 243.45h30v38.512h-30z" fill="#7c90a3"/></g><g><ellipse cx="405.011" cy="407.626" fill="#c2d8ed" rx="42.983" ry="43.05"/><ellipse cx="405.011" cy="407.626" fill="#fff6db" rx="14.643" ry="14.665"/></g><g><g><ellipse cx="92.598" cy="407.626" fill="#c2d8ed" rx="42.983" ry="43.05"/><ellipse cx="92.598" cy="407.626" fill="#fff6db" rx="14.643" ry="14.665"/></g><g><ellipse cx="216.855" cy="407.626" fill="#c2d8ed" rx="42.983" ry="43.05"/><ellipse cx="216.855" cy="407.626" fill="#fff6db" rx="14.643" ry="14.665"/></g></g><path d="m126.773 161.786h-98.299v-16.616c0-8.882 7.2-16.082 16.082-16.082h66.135c8.882 0 16.082 7.2 16.082 16.082z" fill="#869bb0"/><path d="m465.742 273.253h-51.955c-16.478 0-29.836-13.379-29.836-29.883v-81.237h37.709c24.346 0 44.083 19.767 44.083 44.151v66.969z" fill="#cff5ff"/><path d="m421.66 162.134h-30c24.346 0 44.083 19.767 44.083 44.151v66.968h30v-66.968c-.001-24.384-19.737-44.151-44.083-44.151z" fill="#b8f0ff"/><path d="m441.876 241.884-26.048-26.089c-2.927-2.932-7.675-2.934-10.607-.008-2.931 2.927-2.935 7.676-.008 10.607l26.048 26.089c1.465 1.467 3.386 2.201 5.308 2.201 1.917 0 3.835-.731 5.299-2.192 2.931-2.928 2.934-7.677.008-10.608z" fill="#88e0f7"/></g></svg>