<svg id="Layer_1" enable-background="new 0 0 512.086 512.086" height="512" viewBox="0 0 512.086 512.086" width="512" xmlns="http://www.w3.org/2000/svg"><g><g><path d="m482.827 416.586-230.795 32-222.795-32c-11.987 0-21.705-9.718-21.705-21.705 0-11.987 9.718-21.705 21.705-21.705l222.795-37.59 230.795 37.59c11.987 0 21.705 9.718 21.705 21.705 0 11.987-9.718 21.705-21.705 21.705z" fill="#de2a2e"/><g><g><path d="m44.242 459.412-8.616-39.746c48.606-10.536 79.467-58.48 68.931-107.086-11.298-49.817 4.931-101.9 46.929-132.63l30.006-21.957 24.016 32.822-30.007 21.957c-29.139 21.321-39.163 56.933-31.199 91.192 15.296 70.558-29.504 140.154-100.06 155.448z" fill="#de2a2e"/><g><path d="m308.215 80.216 12.69 17.659-82.273 82.969-35.292-49.112z" fill="#cff5ff"/><path d="m171.741 140.061h80.373v45.473h-80.373z" fill="#36b8ff" transform="matrix(.584 .812 -.812 .584 220.459 -104.305)"/></g></g><path d="m504.532 19.643c-66.167-28.667-147.5-5.333-196.317 60.573l12.69 17.659s103.877-31.315 183.627 48.435z" fill="#36b8ff"/></g><path d="m482.827 504.586h-453.59c-11.987 0-21.705-9.718-21.705-21.705 0-11.987 9.718-21.705 21.705-21.705l218.295-27.59 235.295 27.59c11.987 0 21.705 9.718 21.705 21.705 0 11.987-9.718 21.705-21.705 21.705z" fill="#de2a2e"/><path d="m482.827 461.176h-30c11.987 0 21.705 9.718 21.705 21.705 0 11.987-9.718 21.705-21.705 21.705h30c11.987 0 21.705-9.718 21.705-21.705 0-11.987-9.718-21.705-21.705-21.705z" fill="#cf1d21"/><path d="m482.827 460.586h-453.59c-11.987 0-21.705-9.718-21.705-21.705 0-11.987 9.718-21.705 21.705-21.705h453.59c11.987 0 21.705 9.718 21.705 21.705 0 11.987-9.718 21.705-21.705 21.705z" fill="#ff5e57"/><path d="m482.827 417.176h-30c11.987 0 21.705 9.718 21.705 21.705 0 11.987-9.718 21.705-21.705 21.705h30c11.987 0 21.705-9.718 21.705-21.705 0-11.987-9.718-21.705-21.705-21.705z" fill="#f7372f"/><path d="m482.827 373.176h-30c11.987 0 21.705 9.718 21.705 21.705 0 11.987-9.718 21.705-21.705 21.705h30c11.987 0 21.705-9.718 21.705-21.705 0-11.987-9.718-21.705-21.705-21.705z" fill="#cf1d21"/><path d="m482.827 372.586h-453.59c-11.987 0-21.705-9.718-21.705-21.705 0-11.987 9.718-21.705 21.705-21.705h453.59c11.987 0 21.705 9.718 21.705 21.705 0 11.987-9.718 21.705-21.705 21.705z" fill="#ff5e57"/><path d="m482.827 329.176h-30c11.987 0 21.705 9.718 21.705 21.705 0 11.987-9.718 21.705-21.705 21.705h30c11.987 0 21.705-9.718 21.705-21.705 0-11.987-9.718-21.705-21.705-21.705z" fill="#f7372f"/></g><g fill="#060606"><path d="m382.366 99.673c45.808 2.729 85.125 20.203 116.862 51.941 6.859 6.855 17.464-3.749 10.607-10.607-42.861-42.86-92.491-54.277-126.577-56.307-27.74-1.651-49.644 2.389-59.256 4.633l-6.456-8.983c46.315-58.866 121.229-81.02 184.004-53.825 8.898 3.854 14.861-9.909 5.963-13.764-70.203-30.416-153.908-5.109-204.205 61.51l-87.039 42.755-3.239-4.508c-3.016-3.461-6.505-4.033-10.467-1.714l-36.927 26.536c-3.363 2.417-4.131 7.104-1.714 10.468l6.476 9.012-23.34 17.079c-21.508 15.737-37.456 37.447-46.119 62.783-8.372 24.485-9.65 51.305-3.711 77.488.538 2.481.957 4.99 1.267 7.506h-69.258c-16.104 0-29.205 13.102-29.205 29.205 0 8.769 3.89 16.642 10.03 22-6.139 5.358-10.03 13.231-10.03 22s3.891 16.642 10.03 22c-6.139 5.358-10.03 13.23-10.03 22 0 8.769 3.89 16.642 10.03 22-6.139 5.358-10.03 13.231-10.03 22 0 16.104 13.101 29.205 29.205 29.205h31.207c9.697 0 9.697-15 0-15h-31.207c-7.833 0-14.205-6.372-14.205-14.205s6.372-14.205 14.205-14.205h453.59c7.833 0 14.205 6.372 14.205 14.205s-6.372 14.205-14.205 14.205h-383.481c-9.697 0-9.697 15 0 15h383.48c16.104 0 29.205-13.102 29.205-29.205 0-8.769-3.891-16.642-10.03-22 6.139-5.358 10.03-13.231 10.03-22s-3.891-16.642-10.03-22c6.139-5.358 10.03-13.231 10.03-22s-3.891-16.642-10.03-22c6.139-5.358 10.03-13.231 10.03-22 0-16.104-13.102-29.205-29.205-29.205h-328.406c-.478-6.468-1.408-12.937-2.787-19.3-.008-.036-.016-.073-.024-.109-7.686-33.063 3.167-65.035 28.322-83.441l22.954-16.796 7.939 11.048c2.45 3.409 7.174 4.08 10.467 1.714l36.927-26.536c3.364-2.417 4.131-7.104 1.714-10.468l-3.238-4.506 68.123-68.7c6.215-1.604 28.499-6.634 57.549-4.909zm100.461 325.004c7.833 0 14.205 6.372 14.205 14.204 0 7.833-6.372 14.205-14.205 14.205h-453.59c-7.833 0-14.205-6.372-14.205-14.205 0-7.832 6.372-14.204 14.205-14.204zm14.205-73.796c0 11.919-8.667 14.795-17.126 14.795h-36.956c-9.697 0-9.697 15 0 15h39.877c7.833 0 14.205 6.372 14.205 14.205s-6.372 14.205-14.205 14.205h-453.59c-7.833 0-14.205-6.372-14.205-14.205s6.372-14.205 14.205-14.205h373.782c9.697 0 9.697-15 0-15h-370.862c-.898-.38-1.885-.59-2.92-.59-7.833 0-14.205-6.372-14.205-14.205s6.372-14.205 14.205-14.205h453.59c7.833 0 14.205 6.372 14.205 14.205zm-325.959-144.162c-30.074 22.005-43.132 59.892-34.088 98.887 1.147 5.302 1.942 10.684 2.388 16.069h-25.802c-.375-3.591-.925-7.182-1.7-10.754-11.121-49.037 5.755-96.903 44.043-124.918l23.236-17.003 14.98 20.846zm47.556-8.486-38.148-53.089 24.746-17.783 38.149 53.089zm6.516-68.856 80.682-39.631 5.285 7.354-63.294 63.829z"/><path d="m454.585 65.081c-9.487-2.004-12.593 12.668-3.105 14.676 31.736 6.714 46.875 19.946 47.177 20.213 6.955 6.326 16.891-4.865 10.11-11.079-.715-.657-17.927-16.14-54.182-23.81z"/><path d="m391.389 40.529c-8.287 4.604-1.032 17.733 7.285 13.113.161-.09 16.351-8.932 35.001-8.065 9.681.432 10.402-14.523.713-14.982-22.866-1.104-42.187 9.485-42.999 9.934z"/></g></g></svg>