<svg id="Layer_1" enable-background="new 0 0 512.077 512.077" height="512" viewBox="0 0 512.077 512.077" width="512" xmlns="http://www.w3.org/2000/svg"><g><g><g><path d="m113.256 141.295h-56.264v-59.526c0-15.537 12.595-28.132 28.132-28.132 15.537 0 28.132 12.595 28.132 28.132z" fill="#cff5ff"/></g><path d="m134.273 189.099h-98.299v-36.616c0-8.882 7.2-16.082 16.082-16.082h66.135c8.882 0 16.082 7.2 16.082 16.082z" fill="#36b8ff"/><path d="m308.096 211.189h48.971v164.881h-48.971z" fill="#de2a2e"/><path d="m294.125 417.813h-263.797c-12.608 0-22.828-10.221-22.828-22.828v-64.671l20-61-20-58.124v-18.914c0-12.608 10.221-22.828 22.828-22.828h263.796c12.608 0 22.828 10.221 22.828 22.828v202.709c.001 12.607-10.22 22.828-22.827 22.828z" fill="#ff5e57"/><path d="m294.125 169.447h-30c12.608 0 22.828 10.221 22.828 22.828v202.709c0 12.608-10.221 22.828-22.828 22.828h30c12.608 0 22.828-10.221 22.828-22.828v-202.708c0-12.608-10.221-22.829-22.828-22.829z" fill="#f7372f"/><path d="m488.698 417.813h-126.907c-8.727 0-15.802-7.086-15.802-15.827v-216.712c0-8.741 7.075-15.827 15.802-15.827h29.66l81.791 111.119c0 4.339 1.798 8.483 4.965 11.443l19.673 18.39c4.223 3.947 6.62 9.473 6.62 15.258v76.328c0 8.742-7.075 15.828-15.802 15.828z" fill="#ff5e57"/><path d="m497.88 310.4-19.673-18.39c-3.167-2.96-4.965-7.105-4.965-11.443l-30.231-57.198.231 57.198c0 4.339 1.798 8.483 4.965 11.443l19.673 18.39c4.223 3.947 6.62 9.473 6.62 15.258v76.328c0 8.741-7.075 15.827-15.802 15.827h30c8.727 0 15.802-7.086 15.802-15.827v-76.328c0-5.785-2.397-11.311-6.62-15.258z" fill="#f7372f"/><path d="m488.711 418.027h-44.643l-5.735-34.437h66.167v18.648c0 8.719-7.069 15.789-15.789 15.789z" fill="#36b8ff"/><path d="m474.5 383.589v18.648c0 8.72-7.069 15.789-15.789 15.789h30c8.72 0 15.789-7.069 15.789-15.789v-18.648z" fill="#0aa5fa"/><g><path d="m7.5 211.189h309.35v117.66h-309.35z" fill="#0094e6"/><path d="m286.85 211.189h30v117.66h-30z" fill="#0085cf"/><path d="m7.5 250.763h309.35v38.512h-309.35z" fill="#36b8ff"/><path d="m286.85 250.763h30v38.512h-30z" fill="#0aa5fa"/></g><g><ellipse cx="412.511" cy="414.94" fill="#cff5ff" rx="42.983" ry="43.05"/><ellipse cx="412.511" cy="414.94" fill="#0094e6" rx="14.643" ry="14.665"/></g><g><g><ellipse cx="100.098" cy="414.94" fill="#cff5ff" rx="42.983" ry="43.05"/><ellipse cx="100.098" cy="414.94" fill="#0094e6" rx="14.643" ry="14.665"/></g><g><ellipse cx="224.355" cy="414.94" fill="#cff5ff" rx="42.983" ry="43.05"/><ellipse cx="224.355" cy="414.94" fill="#0094e6" rx="14.643" ry="14.665"/></g></g><path d="m473.242 280.566h-51.955c-16.478 0-29.836-13.379-29.836-29.883v-81.237h37.709c24.346 0 44.083 19.767 44.083 44.151v66.969z" fill="#cff5ff"/><path d="m429.16 169.447h-30c24.346 0 44.083 19.767 44.083 44.151v66.968h30v-66.968c-.001-24.384-19.737-44.151-44.083-44.151z" fill="#b8f0ff"/></g><g fill="#060606"><path d="m84.082 78.487c-9.652 0-9.668 15 0 15 9.652 0 9.668-15 0-15z"/><path d="m504.5 348.98c4.142 0 7.5-3.358 7.5-7.5 0-12.971 1.525-26.721-8.999-36.559-5.597-5.232-22.259-15.677-22.259-24.354v-66.968c0-28.48-23.14-51.651-51.583-51.651h-67.369c-12.849 0-23.302 10.464-23.302 23.327v18.416h-14.036v-11.414c0-16.723-13.605-30.328-30.328-30.328h-152.351v-9.463c0-8.08-4.086-15.222-10.299-19.473l301.914.786c3.789 0 7.51-3.77 7.519-7.481l.14-55.548c0-4.089-3.4-7.517-7.497-7.519l-318.53-.83c-18.934-29.153-65.529-15.323-65.529 19.35v47.275c-11.801 1.282-21.018 11.304-21.018 23.441v9.525c-15.861.959-28.473 14.163-28.473 30.263v202.709c0 16.723 13.605 30.328 30.328 30.328h20.36c4.792 22.914 25.123 40.177 49.41 40.177s44.618-17.263 49.41-40.177h25.438c4.792 22.914 25.123 40.177 49.41 40.177s44.618-17.263 49.41-40.177h20.36c16.723 0 30.328-13.605 30.328-30.328v-11.414h14.036v18.416c0 13.291 11.486 23.868 24.613 23.327 4.792 22.914 25.123 40.177 49.41 40.177s44.618-17.263 49.41-40.177c8.924 0 17.889.214 26.79.214 12.842 0 23.29-10.447 23.29-23.289v-.251-18.396c0-4.142-3.358-7.5-7.5-7.5h-59.732c-8.754-7.3-20.001-11.7-32.257-11.7-26.278 0-47.92 20.211-50.263 45.923-4.375-.482-8.76-3.22-8.76-8.327v-216.713c0-4.591 3.724-8.327 8.302-8.327h22.16v73.737c0 20.613 16.749 37.382 37.336 37.382h45.717c3.817 11.13 17.478 20.076 25.755 27.813 6.305 5.894 4.242 17.896 4.242 25.601-.003 4.142 3.355 7.5 7.497 7.5zm-7.5 53.006c0 4.591-3.724 8.327-8.302 8.327h-25.924c-.628-6.898-2.641-13.401-5.766-19.223h39.992zm-84.489-22.596c19.565 0 35.483 15.948 35.483 35.55s-15.917 35.55-35.483 35.55-35.483-15.948-35.483-35.55 15.918-35.55 35.483-35.55zm-103.16-136.127h-192.415c-9.697 0-9.697 15 0 15h192.415v23.512h-294.351v-23.512h61.989c9.697 0 9.697-15 0-15h-61.989v-24.573h294.351zm-294.351 53.512h294.351v24.574h-294.351zm189.08-178.559-29.875-.076 29.951-29.846-.024 9.648zm55.462.141-29.875-.076 29.951-29.846-.024 9.648zm55.461.14-29.875-.075 29.95-29.846-.024 9.647zm55.462.14-29.875-.076 29.951-29.846-.024 9.648zm15.051-20.236.051-20.274 29.875.076-29.951 29.846zm-55.486 9.507.024-9.648.051-20.274 29.875.076zm-55.461-.14.024-9.648.051-20.274 29.875.076zm-55.462-.141.024-9.648.051-20.274 29.875.076zm-55.462-.14.024-9.648.051-20.274 29.875.075zm-14.981-7.391-.045 17.973-27.863-.095v-1.981l27.938-27.84zm247.387 18.606 29.951-29.846-.075 29.922zm-257.906-41.212-17.389 17.328v-13.049c0-1.467-.1-2.911-.273-4.333zm-73.653 4.279c0-26.485 41.264-26.524 41.264 0v47.133h-41.264zm-21.018 70.715c0-4.732 3.85-8.583 8.582-8.583h66.135c4.732 0 8.583 3.85 8.583 8.583v9.116h-83.3zm-13.146 24.463h263.796c8.452 0 15.328 6.876 15.328 15.328v11.414h-294.452v-11.414c0-8.452 6.876-15.328 15.328-15.328zm69.77 273.542c-19.565 0-35.483-15.948-35.483-35.55s15.917-35.55 35.483-35.55 35.483 15.948 35.483 35.55-15.918 35.55-35.483 35.55zm124.257 0c-19.565 0-35.483-15.948-35.483-35.55s15.917-35.55 35.483-35.55 35.483 15.948 35.483 35.55-15.918 35.55-35.483 35.55zm69.77-40.176h-19.507c-2.342-25.711-23.985-45.923-50.263-45.923s-47.92 20.211-50.263 45.923h-23.732c-2.342-25.711-23.985-45.923-50.263-45.923s-47.92 20.211-50.263 45.923h-19.506c-8.452 0-15.328-6.876-15.328-15.328v-58.635h294.453v58.635c0 8.452-6.876 15.328-15.328 15.328zm30.328-41.743v-149.88h14.036v149.88zm74.498-117.886v-73.737h30.209c20.172 0 36.583 16.442 36.583 36.651v59.468h-44.456c-12.316 0-22.336-10.04-22.336-22.382z"/><path d="m412.511 437.105c12.209 0 22.143-9.943 22.143-22.166s-9.933-22.166-22.143-22.166-22.143 9.943-22.143 22.166 9.934 22.166 22.143 22.166zm0-29.331c3.938 0 7.143 3.214 7.143 7.166s-3.204 7.166-7.143 7.166-7.143-3.214-7.143-7.166 3.205-7.166 7.143-7.166z"/><path d="m100.098 392.774c-12.209 0-22.143 9.943-22.143 22.166s9.933 22.166 22.143 22.166 22.143-9.943 22.143-22.166-9.934-22.166-22.143-22.166zm0 29.331c-3.938 0-7.143-3.214-7.143-7.166s3.204-7.166 7.143-7.166 7.143 3.214 7.143 7.166-3.205 7.166-7.143 7.166z"/><path d="m224.355 392.774c-12.209 0-22.143 9.943-22.143 22.166s9.933 22.166 22.143 22.166 22.143-9.943 22.143-22.166-9.934-22.166-22.143-22.166zm0 29.331c-3.938 0-7.143-3.214-7.143-7.166s3.204-7.166 7.143-7.166 7.143 3.214 7.143 7.166-3.205 7.166-7.143 7.166z"/><path d="m423.328 223.108c-6.852-6.862-17.467 3.736-10.615 10.599l26.048 26.089c6.854 6.863 17.466-3.737 10.615-10.599z"/></g></g></svg>