<svg id="Layer_1" enable-background="new 0 0 512 512" height="512" viewBox="0 0 512 512" width="512" xmlns="http://www.w3.org/2000/svg"><g><g><path d="m422.744 504.5h-333.488c-19.213 0-34.789-15.576-34.789-34.789v-427.422c0-19.213 15.576-34.789 34.789-34.789h333.488c19.213 0 34.789 15.576 34.789 34.789v427.422c0 19.213-15.576 34.789-34.789 34.789z" fill="#ff5e57"/><g><g><path d="m111.659 421.433v-202.827c0-11.046 8.954-20 20-20h248.682c11.046 0 20 8.954 20 20v202.827c0 11.046-8.954 20-20 20h-248.682c-11.046 0-20-8.955-20-20z" fill="#de2a2e"/></g></g><path d="m380.341 198.606h-30c11.046 0 20 8.954 20 20v202.827c0 11.046-8.954 20-20 20h30c11.046 0 20-8.954 20-20v-202.827c0-11.046-8.954-20-20-20z" fill="#cf1d21"/><path d="m111.659 266.022h288.682v107.995h-288.682z" fill="#fff6db"/><path d="m370.341 266.022h30v107.995h-30z" fill="#ffeebd"/><circle cx="256" cy="320.019" fill="#cf1d21" r="27"/></g><g fill="#060606"><path d="m422.744 0h-333.488c-23.318 0-42.289 18.971-42.289 42.289v32.735c0 9.697 15 9.697 15 0v-32.735c0-15.047 12.242-27.289 27.289-27.289h333.487c15.047 0 27.289 12.242 27.289 27.289v427.422c0 15.047-12.242 27.289-27.289 27.289h-333.487c-15.047 0-27.289-12.242-27.289-27.289v-354.724c0-9.697-15-9.697-15 0v354.724c0 23.318 18.971 42.289 42.289 42.289h333.487c23.318 0 42.289-18.971 42.289-42.289v-427.422c.001-23.318-18.97-42.289-42.288-42.289z"/><path d="m220.833 152.612v-85.276c0-9.697-15-9.697-15 0v85.275c0 9.698 15 9.698 15 .001z"/><path d="m175.397 75.149c9.697 0 9.697-15 0-15h-34.309c-4.142 0-7.5 3.358-7.5 7.5v84.651c0 9.697 15 9.697 15 0v-35.627h24.084c9.697 0 9.697-15 0-15h-24.084v-26.524z"/><path d="m370.912 75.226c9.697 0 9.697-15 0-15h-35.604c-4.142 0-7.5 3.358-7.5 7.5v84.497c0 4.142 3.358 7.5 7.5 7.5h35.604c9.697 0 9.697-15 0-15h-28.104v-27.249h25.479c9.697 0 9.697-15 0-15h-25.479v-27.248z"/><path d="m305.621 89.499c0-16.356-13.869-29.662-30.917-29.662h-22.661c-.005 0-.009.001-.014.001s-.009-.001-.014-.001c-4.142 0-7.5 3.358-7.5 7.5v85.275c0 9.697 15 9.697 15 0v-32.511l32.975 37.466c6.498 7.385 17.607-2.699 11.26-9.91l-25.281-28.724c15.278-1.789 27.152-14.302 27.152-29.434zm-30.916 14.662c-3.448 0-9.918.03-15.046.057-.027-5.051-.058-11.38-.058-14.719 0-2.829-.018-9.401-.033-14.662h15.137c20.271-.001 20.271 29.324 0 29.324z"/><path d="m104.159 218.605v202.827c0 15.164 12.336 27.5 27.5 27.5h248.683c15.164 0 27.5-12.336 27.5-27.5v-81.432c0-9.697-15-9.697-15 0v26.517h-273.683v-92.995h273.683v26.478c0 9.697 15 9.697 15 0v-81.395c0-15.164-12.336-27.5-27.5-27.5h-248.683c-15.164 0-27.5 12.337-27.5 27.5zm288.682 162.912v39.916c0 6.893-5.607 12.5-12.5 12.5h-248.682c-6.893 0-12.5-5.607-12.5-12.5v-39.916zm0-162.912v39.917h-273.682v-39.917c0-6.893 5.607-12.5 12.5-12.5h248.683c6.892 0 12.499 5.608 12.499 12.5z"/><path d="m221.5 320.019c0 19.023 15.477 34.5 34.5 34.5s34.5-15.477 34.5-34.5-15.477-34.5-34.5-34.5-34.5 15.477-34.5 34.5zm54 0c0 10.752-8.748 19.5-19.5 19.5s-19.5-8.748-19.5-19.5 8.748-19.5 19.5-19.5 19.5 8.748 19.5 19.5z"/><path d="m371.162 320.019c0-4.142-3.358-7.5-7.5-7.5h-27.217l5.843-5.843c6.858-6.856-3.749-17.463-10.606-10.606l-18.646 18.646c-2.929 3.535-2.929 7.071 0 10.606l18.646 18.646c6.857 6.857 17.464-3.75 10.606-10.606l-5.843-5.843h27.217c4.142 0 7.5-3.358 7.5-7.5z"/><path d="m169.712 343.969c3.535 2.929 7.071 2.929 10.606 0l18.646-18.646c2.929-3.535 2.929-7.071 0-10.606l-18.646-18.646c-6.856-6.858-17.464 3.75-10.606 10.606l5.843 5.843h-27.217c-9.697 0-9.697 15 0 15h27.217l-5.843 5.843c-2.929 2.928-2.929 7.677 0 10.606z"/></g></g></svg>