<svg id="Capa_1" enable-background="new 0 0 493.956 493.956" height="512" viewBox="0 0 493.956 493.956" width="512" xmlns="http://www.w3.org/2000/svg"><g><path d="m477.72 396.425h-69.487v-49.202h69.487c2.658 0 4.412 2.765 3.28 5.17l-9.15 19.431 9.15 19.431c1.132 2.404-.622 5.17-3.28 5.17z" fill="#9cf8d2"/><path d="m477.72 305.615h-62.487v-49.202h62.487c2.658 0 4.412 2.765 3.28 5.17l-9.15 19.431 9.15 19.431c1.132 2.405-.622 5.17-3.28 5.17z" fill="#ee6161"/><path d="m477.72 214.805h-63.487v-49.202h63.487c2.658 0 4.412 2.765 3.28 5.17l-9.15 19.431 9.15 19.431c1.132 2.405-.622 5.17-3.28 5.17z" fill="#22b27f"/><path d="m477.72 123.996h-60.487v-49.202h60.487c2.658 0 4.412 2.765 3.28 5.17l-9.15 19.431 9.15 19.431c1.132 2.405-.622 5.17-3.28 5.17z" fill="#fee45a"/><path d="m410.122 0h-251.54c-13.31 0-24.11 10.8-24.11 24.11v394.202l20.033 11.333 238.716 2.107 41.01-40.857v-.005-366.78c.001-13.31-10.789-24.11-24.109-24.11z" fill="#f47c7c"/><path d="m226.222 0h-67.639c-13.31 0-24.11 10.8-24.11 24.11v398.88h67.639v-398.88c0-13.31 10.8-24.11 24.11-24.11z" fill="#ee6161"/><path d="m424.229 455.089c5.525 0 10.004-4.479 10.004-10.004v-54.19h-267.663c-17.518 0-31.758 14.033-32.091 31.471-.344 17.994 14.728 32.723 32.725 32.723z" fill="#fdd79b"/><path d="m177.195 422.366c.286-14.981 10.841-28.256 24.916-31.471h-35.541c-17.518 0-31.758 14.033-32.091 31.471-.344 17.994 14.728 32.723 32.725 32.723h42.717c-17.998 0-33.07-14.729-32.726-32.723z" fill="#fccd7f"/><path d="m269.072 493.535-21.087-10.516-21.087 10.516c-2.632 1.313-5.726-.602-5.726-3.543v-65.74h53.625v65.74c.001 2.941-3.093 4.855-5.725 3.543z" fill="#fee45a"/><g><path d="m287.26 431.752h-79.305c-4.142 0-7.5-3.358-7.5-7.5s3.358-7.5 7.5-7.5h79.305c4.143 0 7.5 3.358 7.5 7.5s-3.357 7.5-7.5 7.5z" fill="#fccd7f"/></g><path d="m170.911 271.651-17.894-15.238h-98.445c-23.177 0-41.966-18.789-41.966-41.966v-48.485c0-23.177 18.789-41.966 41.966-41.966h77.617c23.177 0 41.966 18.789 41.966 41.966v104.191c0 1.678-1.966 2.586-3.244 1.498z" fill="#d4f2f6"/><g id="XMLID_1005_"><g><path d="m108.286 159.213-34.414 12.457-12.933 9.324v19.689l12.933 8.057 34.414 12.457c1.885.682 3.876-.714 3.876-2.719v-56.546c0-2.005-1.991-3.401-3.876-2.719z" fill="#f9f7f8"/><path d="m73.872 171.67v37.07h-19.03c-5.63 0-10.19-4.56-10.19-10.19v-16.69c0-5.63 4.56-10.19 10.19-10.19z" fill="#d7d0d6"/></g></g><g><g><path d="m138.193 219.2c-2.782 0-5.454-1.554-6.751-4.225-1.81-3.726-.257-8.213 3.469-10.023 5.703-2.771 9.246-8.421 9.246-14.748 0-6.326-3.543-11.977-9.246-14.748-3.726-1.81-5.279-6.298-3.469-10.023 1.811-3.726 6.298-5.277 10.023-3.469 10.913 5.302 17.691 16.123 17.691 28.24 0 12.118-6.779 22.938-17.691 28.24-1.056.513-2.173.756-3.272.756z" fill="#f9f7f8"/></g></g><path d="m384.873 357.945h-197.906c-4.611 0-8.349-3.738-8.349-8.349v-28.184c0-4.611 3.738-8.349 8.349-8.349h197.906c4.611 0 8.349 3.738 8.349 8.349v28.184c0 4.611-3.738 8.349-8.349 8.349z" fill="#ee6161"/><path d="m202.112 313.063h-15.145c-4.611 0-8.349 3.738-8.349 8.349v28.184c0 4.611 3.738 8.349 8.349 8.349h15.145z" fill="#e53950"/><circle cx="284.353" cy="143.399" fill="#f9f7f8" r="75.971"/><path d="m268.033 165.246v-43.692c0-4.741 5.279-7.572 9.229-4.95l32.905 21.846c3.54 2.351 3.54 7.55 0 9.901l-32.905 21.846c-3.95 2.621-9.229-.211-9.229-4.951z" fill="#f47c7c"/></g></svg>