<?xml version="1.0"?>
<svg xmlns="http://www.w3.org/2000/svg" id="Outline" viewBox="0 0 512 512" width="512" height="512"><path d="M491.122,94.234c-1.963-1.446-5.172-3.811-6.061-5.075.09-1.6,1.763-5.446,2.786-7.8,2.79-6.417,6.263-14.4,2.226-21.381-4.079-7.05-12.8-8.029-19.811-8.815-2.5-.28-6.583-.739-8-1.428-.69-1.418-1.148-5.5-1.428-8-.786-7.009-1.766-15.731-8.814-19.809-6.978-4.04-14.965-.567-21.383,2.225-2.35,1.022-6.2,2.7-7.8,2.785-1.265-.889-3.629-4.1-5.075-6.061C413.538,15.141,408.277,8,400,8s-13.538,7.141-17.766,12.878c-1.446,1.963-3.811,5.172-5.075,6.061-1.6-.09-5.446-1.763-7.8-2.786-6.416-2.791-14.4-6.261-21.381-2.226-7.05,4.079-8.029,12.8-8.815,19.811-.28,2.5-.739,6.583-1.428,8-1.418.69-5.5,1.148-8,1.428-7.009.786-15.731,1.766-19.809,8.814-4.039,6.979-.566,14.965,2.225,21.383,1.022,2.349,2.695,6.2,2.785,7.8-.889,1.265-4.1,3.629-6.061,5.075C303.141,98.462,296,103.723,296,112s7.141,13.538,12.878,17.766c1.963,1.446,5.172,3.811,6.061,5.075-.09,1.6-1.763,5.446-2.786,7.8-2.79,6.417-6.263,14.4-2.226,21.381,4.079,7.05,12.8,8.029,19.811,8.815,2.5.28,6.583.739,8,1.428.69,1.418,1.148,5.5,1.428,8,.064.568.131,1.151.2,1.738H120a8,8,0,0,0-6.6,3.486l-.006,0-104,152A8.006,8.006,0,0,0,8,344V496a8,8,0,0,0,8,8H448a8,8,0,0,0,8-8V336a7.95,7.95,0,0,0-1.521-4.679l.006-.005-92.8-128.495a69.6,69.6,0,0,0,7.68-2.975c2.35-1.022,6.2-2.695,7.8-2.785,1.265.889,3.629,4.1,5.075,6.061C386.462,208.859,391.723,216,400,216s13.538-7.141,17.766-12.878c1.446-1.963,3.811-5.172,5.075-6.061,1.6.09,5.446,1.763,7.8,2.786,6.417,2.791,14.4,6.262,21.381,2.226,7.05-4.079,8.029-12.8,8.815-19.811.28-2.5.739-6.583,1.428-8,1.418-.69,5.5-1.148,8-1.428,7.009-.786,15.731-1.766,19.809-8.814,4.039-6.979.566-14.965-2.225-21.383-1.022-2.349-2.695-6.2-2.785-7.8.889-1.265,4.1-3.629,6.061-5.075C496.859,125.538,504,120.277,504,112S496.859,98.462,491.122,94.234ZM204.979,296h60.264l23.111,32H228.09Zm97.6-48,23.112,32H273.424l-23.112-32Zm-63.819-16-23.111-32H267.91l23.111,32Zm14.931,48H193.424l-23.111-32h60.263Zm54.4,48-23.111-32h52.264l23.111,32Zm72,0-23.111-32h52.264l23.111,32Zm-34.666-48-23.112-32h52.264l23.111,32Zm-34.667-48-23.111-32h52.263l23.111,32ZM195.91,200l23.111,32H158.757l-23.111-32ZM24,346.475l96.177-140.566L216,338.586V488H160V384a8,8,0,0,0-8-8H88a8,8,0,0,0-8,8V488H24ZM144,488H96V392h48Zm296,0H232V344H440Zm41.631-371.115c-5.134,3.783-10.443,7.695-12.066,13.766-1.667,6.237,1.136,12.681,3.609,18.367a53,53,0,0,1,2.592,6.759,51.965,51.965,0,0,1-7.288,1.157c-6.119.686-13.053,1.463-17.567,5.978s-5.292,11.448-5.978,17.566a52.154,52.154,0,0,1-1.156,7.289,52.95,52.95,0,0,1-6.759-2.593c-5.687-2.473-12.137-5.278-18.367-3.609-6.072,1.623-9.983,6.932-13.766,12.066A47.76,47.76,0,0,1,400,199.6a47.76,47.76,0,0,1-4.885-5.967c-3.783-5.134-7.695-10.443-13.766-12.066a15.247,15.247,0,0,0-3.952-.5c-4.96,0-9.924,2.159-14.415,4.112a53.054,53.054,0,0,1-6.759,2.592,51.965,51.965,0,0,1-1.157-7.288c-.686-6.119-1.463-13.053-5.978-17.567s-11.448-5.292-17.566-5.978a52.154,52.154,0,0,1-7.289-1.156,52.95,52.95,0,0,1,2.593-6.759c2.473-5.686,5.276-12.131,3.609-18.367-1.623-6.072-6.932-9.983-12.066-13.766A47.76,47.76,0,0,1,312.4,112a47.76,47.76,0,0,1,5.967-4.885c5.134-3.783,10.443-7.695,12.066-13.766,1.667-6.237-1.136-12.681-3.609-18.367a53,53,0,0,1-2.592-6.759,51.965,51.965,0,0,1,7.288-1.157c6.119-.686,13.053-1.463,17.567-5.978s5.292-11.448,5.978-17.566a52.154,52.154,0,0,1,1.156-7.289,52.95,52.95,0,0,1,6.759,2.593c5.687,2.474,12.137,5.277,18.367,3.609,6.072-1.623,9.983-6.932,13.766-12.066A47.76,47.76,0,0,1,400,24.4a47.76,47.76,0,0,1,4.885,5.967c3.783,5.134,7.695,10.443,13.766,12.066,6.235,1.667,12.681-1.135,18.367-3.609a53.054,53.054,0,0,1,6.759-2.592,51.965,51.965,0,0,1,1.157,7.288c.686,6.119,1.463,13.053,5.978,17.567s11.448,5.292,17.566,5.978a52.154,52.154,0,0,1,7.289,1.156,52.95,52.95,0,0,1-2.593,6.759c-2.473,5.686-5.276,12.131-3.609,18.367,1.623,6.072,6.932,9.983,12.066,13.766A47.76,47.76,0,0,1,487.6,112,47.76,47.76,0,0,1,481.631,116.885Z"/><path d="M400,56a56,56,0,1,0,56,56A56.063,56.063,0,0,0,400,56Zm0,96a40,40,0,1,1,40-40A40.045,40.045,0,0,1,400,152Z"/><path d="M104,320h16l-14.4,19.2a8,8,0,1,0,12.8,9.6l24-32A8,8,0,0,0,136,304H120l14.4-19.2a8,8,0,1,0-12.8-9.6l-24,32A8,8,0,0,0,104,320Z"/><path d="M288,440h96a8,8,0,0,0,8-8V384a8,8,0,0,0-8-8H288a8,8,0,0,0-8,8v48A8,8,0,0,0,288,440Zm88-16H344V392h32Zm-80-32h32v32H296Z"/><path d="M40,152a32.017,32.017,0,0,0,10.827-1.888,47.979,47.979,0,0,0,58.346,0,31.994,31.994,0,0,0,41.8-38.138c.341.011.681.026,1.025.026a32.017,32.017,0,0,0,10.827-1.888,47.979,47.979,0,0,0,58.346,0A32,32,0,1,0,233.6,48.039a48.011,48.011,0,0,0-83.2,0,32,32,0,0,0-29.724,38.517A47.985,47.985,0,0,0,38.4,88.039,32,32,0,0,0,40,152ZM152,64a16.217,16.217,0,0,1,2.162.151,8,8,0,0,0,8.425-4.769,32.009,32.009,0,0,1,58.826,0,8,8,0,0,0,8.425,4.769A16.217,16.217,0,0,1,232,64a16,16,0,1,1-8.091,29.8,8,8,0,0,0-9.629,1.155,31.966,31.966,0,0,1-44.56,0,8,8,0,0,0-9.629-1.155A16,16,0,1,1,152,64ZM40,104a16.217,16.217,0,0,1,2.162.151,8,8,0,0,0,8.425-4.769,32.009,32.009,0,0,1,58.826,0,8,8,0,0,0,8.425,4.769A16.217,16.217,0,0,1,120,104a16,16,0,1,1-8.091,29.8,8,8,0,0,0-9.629,1.155,31.966,31.966,0,0,1-44.56,0,8,8,0,0,0-9.629-1.155A16,16,0,1,1,40,104Z"/></svg>
