<?xml version="1.0" encoding="iso-8859-1"?>
<!-- Generator: Adobe Illustrator 19.0.0, SVG Export Plug-In . SVG Version: 6.00 Build 0)  -->
<svg version="1.1" id="Capa_1" xmlns="http://www.w3.org/2000/svg" xmlns:xlink="http://www.w3.org/1999/xlink" x="0px" y="0px"
	 viewBox="0 0 512 512" style="enable-background:new 0 0 512 512;" xml:space="preserve">
<g>
	<g>
		<g>
			<polygon points="338.6,114.759 264.828,114.759 264.828,158.897 346.165,158.897 			"/>
			<polygon points="370.379,300.138 264.828,300.138 264.828,344.276 377.944,344.276 			"/>
			<polygon points="349.193,176.552 264.828,176.552 264.828,220.69 356.758,220.69 			"/>
			<polygon points="247.172,114.759 174.963,114.759 166.135,158.897 247.172,158.897 			"/>
			<polygon points="359.786,238.345 264.828,238.345 264.828,282.483 367.351,282.483 			"/>
			<polygon points="499.968,344.276 486.1,300.138 388.29,300.138 395.855,344.276 			"/>
			<polygon points="461.127,220.69 447.258,176.552 367.104,176.552 374.669,220.69 			"/>
			<polygon points="356.511,114.759 364.085,158.897 441.706,158.897 427.838,114.759 			"/>
			<polygon points="480.547,282.483 466.679,238.345 377.697,238.345 385.262,282.483 			"/>
			<polygon points="156.954,114.759 85.751,114.759 70.621,158.897 148.127,158.897 			"/>
			<polygon points="317.793,494.345 194.207,494.345 129.042,494.345 120.214,512 391.786,512 382.958,494.345 			"/>
			<polygon points="247.172,220.69 247.172,176.552 162.807,176.552 155.242,220.69 			"/>
			<polygon points="8.828,397.241 220.69,397.241 291.31,397.241 503.172,397.241 503.172,361.931 8.828,361.931 			"/>
			<polygon points="123.71,300.138 25.9,300.138 12.032,344.276 116.145,344.276 			"/>
			<polygon points="227.054,414.897 206.451,476.69 305.549,476.69 284.946,414.897 			"/>
			<polygon points="134.056,344.276 247.172,344.276 247.172,300.138 141.621,300.138 			"/>
			<polygon points="247.172,238.345 152.214,238.345 144.649,282.483 247.172,282.483 			"/>
			<polygon points="134.303,238.345 45.321,238.345 31.453,282.483 126.738,282.483 			"/>
			<polygon points="144.896,176.552 64.742,176.552 50.865,220.69 137.331,220.69 			"/>
			<path d="M292.263,69.44l31.131,17.973c-1.328,3.146-2.425,6.385-3.281,9.691h114.205c0.155,0,0.284,0.08,0.438,0.088
				c0.572,0.057,1.136,0.171,1.685,0.341c2.228,0.373,4.153,1.766,5.204,3.765c0.355,0.505,0.654,1.047,0.892,1.617
				c0.05,0.136,0.16,0.23,0.204,0.37l11.495,36.576c2.021-5.287,3.414-10.793,4.151-16.405c0.225,0.017,0.417,0.13,0.647,0.13h35.31
				c4.875,0,8.828-3.952,8.828-8.828c0-4.875-3.952-8.828-8.828-8.828h-35.31c-0.211,0-0.387,0.106-0.594,0.12
				c-0.771-6.369-2.413-12.602-4.88-18.524c0.387-0.131,0.765-0.29,1.129-0.476l29.944-17.655c4.199-2.476,5.596-7.887,3.121-12.086
				c-2.476-4.199-7.887-5.596-12.086-3.121l-29.944,17.655c-0.286,0.224-0.556,0.467-0.81,0.727
				c-3.971-5.306-8.664-10.03-13.943-14.036c0.121-0.178,0.281-0.316,0.391-0.505l17.664-30.595c1.579-2.732,1.58-6.099,0.002-8.832
				c-1.577-2.733-4.493-4.416-7.649-4.415c-3.155,0.001-6.07,1.685-7.646,4.419l-17.664,30.595c-0.093,0.161-0.088,0.342-0.17,0.505
				c-5.961-2.505-12.24-4.173-18.658-4.957V8.828c0-4.875-3.952-8.828-8.828-8.828c-4.875,0-8.828,3.952-8.828,8.828v35.919
				c-6.381,0.786-12.625,2.445-18.555,4.93l-17.936-31.068c-2.439-4.22-7.837-5.666-12.058-3.229
				c-4.222,2.437-5.67,7.834-3.235,12.056L345.736,58.5c-5.119,3.891-9.68,8.465-13.558,13.594l-31.088-17.947
				c-4.223-2.435-9.62-0.987-12.056,3.235C286.597,61.603,288.043,67.001,292.263,69.44z"/>
		</g>
	</g>
</g>
<g>
</g>
<g>
</g>
<g>
</g>
<g>
</g>
<g>
</g>
<g>
</g>
<g>
</g>
<g>
</g>
<g>
</g>
<g>
</g>
<g>
</g>
<g>
</g>
<g>
</g>
<g>
</g>
<g>
</g>
</svg>
